<svg id="svg" version="1.1" xmlns="http://www.w3.org/2000/svg" xmlns:xlink="http://www.w3.org/1999/xlink" width="400" height="400" viewBox="0, 0, 400,400"><g id="svgg"><path id="path0" d="M216.100 162.691 C 216.925 162.778,218.275 162.778,219.100 162.691 C 219.925 162.605,219.250 162.534,217.600 162.534 C 215.950 162.534,215.275 162.605,216.100 162.691 M225.505 162.683 C 226.002 162.779,226.722 162.775,227.105 162.675 C 227.487 162.575,227.080 162.496,226.200 162.501 C 225.320 162.505,225.007 162.587,225.505 162.683 M180.523 163.099 C 183.341 163.168,187.841 163.168,190.523 163.099 C 193.205 163.030,190.900 162.973,185.400 162.973 C 179.900 162.974,177.705 163.030,180.523 163.099 M249.305 163.087 C 249.914 163.179,250.814 163.177,251.305 163.082 C 251.797 162.987,251.300 162.911,250.200 162.914 C 249.100 162.917,248.697 162.995,249.305 163.087 M158.100 163.498 C 160.025 163.571,163.175 163.571,165.100 163.498 C 167.025 163.425,165.450 163.365,161.600 163.365 C 157.750 163.365,156.175 163.425,158.100 163.498 M137.600 163.865 C 135.730 163.921,129.970 164.182,124.800 164.443 C 119.630 164.705,114.860 164.894,114.200 164.862 C 113.540 164.831,112.730 164.997,112.400 165.232 C 111.965 165.541,112.678 165.598,115.000 165.439 C 119.152 165.156,134.084 164.432,144.000 164.034 C 150.734 163.764,151.062 163.724,146.400 163.742 C 143.430 163.753,139.470 163.809,137.600 163.865 M108.705 165.883 C 109.202 165.979,109.922 165.975,110.305 165.875 C 110.687 165.775,110.280 165.696,109.400 165.701 C 108.520 165.705,108.207 165.787,108.705 165.883 M104.900 166.276 C 105.285 166.376,105.915 166.376,106.300 166.276 C 106.685 166.175,106.370 166.093,105.600 166.093 C 104.830 166.093,104.515 166.175,104.900 166.276 M150.800 166.410 C 134.087 166.822,115.469 167.621,115.120 167.942 C 114.862 168.179,117.472 168.107,133.400 167.436 C 158.238 166.389,248.575 166.315,251.781 167.338 C 254.280 168.136,254.568 167.931,252.317 166.958 C 250.398 166.129,178.091 165.739,150.800 166.410 M99.600 167.218 C 99.162 167.515,99.324 167.552,100.200 167.356 C 101.671 167.027,101.990 166.798,100.967 166.806 C 100.545 166.809,99.930 166.995,99.600 167.218 M96.300 168.308 C 95.255 168.656,94.400 169.086,94.400 169.264 C 94.400 169.443,95.345 169.216,96.500 168.761 C 99.788 167.465,99.666 167.189,96.300 168.308 M108.800 168.261 C 102.061 168.903,97.753 170.241,86.800 175.092 C 76.150 179.809,68.900 181.878,57.800 183.368 C 46.839 184.840,44.435 184.583,54.069 182.970 C 57.221 182.442,59.965 182.008,60.167 182.005 C 60.368 182.002,60.427 181.894,60.298 181.764 C 60.090 181.557,56.386 182.039,49.200 183.208 C 45.720 183.774,45.132 183.939,44.445 184.540 C 44.090 184.851,43.395 185.229,42.900 185.380 C 41.840 185.703,41.719 186.870,42.665 187.651 C 43.272 188.151,43.286 188.116,42.828 187.257 C 42.528 186.694,42.472 186.168,42.688 185.952 C 43.270 185.370,52.000 184.984,52.000 185.540 C 52.000 186.395,38.821 206.000,38.246 206.000 C 37.757 206.000,37.756 205.743,38.239 204.136 C 38.890 201.975,38.955 201.269,38.454 201.820 C 37.705 202.644,37.126 206.106,37.678 206.457 C 38.737 207.127,38.725 207.142,49.169 191.000 C 53.709 183.982,53.153 184.560,55.663 184.240 C 59.969 183.691,67.462 182.393,69.720 181.805 C 70.995 181.472,72.375 181.200,72.786 181.200 C 73.197 181.200,73.593 181.051,73.667 180.868 C 73.740 180.686,75.330 180.034,77.200 179.419 C 79.070 178.803,81.050 178.113,81.600 177.884 C 82.150 177.655,82.690 177.437,82.800 177.401 C 82.910 177.364,83.900 176.928,85.000 176.431 C 86.100 175.934,87.720 175.242,88.600 174.893 C 89.480 174.543,90.642 173.975,91.182 173.629 C 91.723 173.283,92.215 173.040,92.277 173.088 C 92.339 173.136,93.207 172.826,94.206 172.398 C 97.020 171.191,102.508 169.600,103.854 169.600 C 104.521 169.600,105.200 169.465,105.362 169.300 C 105.525 169.135,107.670 168.801,110.129 168.559 C 112.684 168.307,113.657 168.120,112.400 168.123 C 111.190 168.126,109.570 168.188,108.800 168.261 M157.063 168.670 C 156.918 168.815,156.800 171.063,156.800 173.667 L 156.800 178.400 151.600 178.400 C 146.193 178.400,146.201 178.402,146.389 176.640 C 146.434 176.222,146.283 175.142,146.055 174.240 C 145.826 173.338,145.529 171.745,145.395 170.700 C 144.868 166.599,144.000 168.376,144.000 173.555 L 144.000 178.309 138.100 178.550 C 134.855 178.682,127.430 178.887,121.600 179.005 C 115.770 179.124,109.470 179.336,107.600 179.478 C 105.730 179.619,103.795 179.724,103.300 179.710 C 101.942 179.672,102.220 180.279,103.800 180.800 C 104.793 181.128,105.982 181.150,107.900 180.876 C 111.743 180.328,144.655 180.243,144.988 180.780 C 145.318 181.315,146.800 181.331,146.800 180.800 C 146.800 180.183,156.909 180.276,157.570 180.900 C 157.998 181.304,158.065 181.284,157.917 180.800 C 157.673 179.998,146.000 179.674,146.000 180.469 C 146.000 180.851,145.893 180.853,145.520 180.480 C 145.167 180.127,141.272 179.983,130.820 179.935 C 121.195 179.892,117.828 179.777,120.400 179.580 C 122.490 179.420,128.745 179.269,134.300 179.245 L 144.400 179.200 144.400 174.733 C 144.400 169.390,144.583 169.361,145.367 174.580 C 146.114 179.550,145.719 179.286,151.925 178.959 L 157.175 178.682 157.287 174.241 L 157.400 169.800 157.963 174.137 C 158.272 176.522,158.722 178.541,158.963 178.624 C 159.203 178.706,171.775 178.825,186.900 178.887 L 214.400 179.000 214.434 174.400 C 214.471 169.560,214.854 169.643,215.386 174.605 C 215.908 179.486,215.578 179.242,221.495 179.112 L 226.600 179.000 226.800 174.600 L 227.000 170.200 227.500 173.316 C 227.775 175.030,228.000 176.839,228.000 177.336 C 228.000 179.230,227.619 179.200,251.880 179.200 C 264.486 179.200,274.799 179.065,274.799 178.900 C 274.797 178.661,270.577 176.257,269.116 175.663 C 268.930 175.588,268.897 176.263,269.041 177.163 L 269.302 178.800 267.951 178.547 C 267.208 178.407,266.195 177.925,265.700 177.477 C 265.182 177.007,264.800 176.865,264.800 177.143 C 264.800 177.408,265.070 177.729,265.400 177.855 C 265.730 177.982,266.000 178.261,266.000 178.475 C 266.000 178.913,229.442 178.777,229.003 178.337 C 228.859 178.192,228.543 176.124,228.302 173.740 C 227.561 166.407,225.918 166.885,226.172 174.361 C 226.247 176.562,226.152 178.417,225.962 178.482 C 225.772 178.547,223.559 178.544,221.046 178.476 L 216.476 178.353 216.218 175.476 C 215.507 167.575,214.000 166.300,214.000 173.600 L 214.000 178.400 186.645 178.400 L 159.289 178.400 159.063 177.100 C 158.939 176.385,158.716 174.318,158.568 172.507 C 158.321 169.496,157.734 167.999,157.063 168.670 M255.420 168.779 C 255.629 168.988,257.420 169.969,259.400 170.958 C 261.380 171.948,263.450 173.123,264.000 173.570 L 265.000 174.382 263.500 174.391 C 261.343 174.404,261.677 175.578,264.000 176.147 C 264.685 176.315,264.559 176.174,263.600 175.701 L 262.200 175.011 263.887 174.883 C 264.815 174.813,266.210 174.931,266.987 175.145 C 269.078 175.723,268.751 175.431,265.100 173.462 C 256.558 168.856,254.499 167.860,255.420 168.779 M90.400 171.000 C 89.850 171.314,89.580 171.572,89.800 171.572 C 90.020 171.572,90.650 171.314,91.200 171.000 C 91.750 170.686,92.020 170.428,91.800 170.428 C 91.580 170.428,90.950 170.686,90.400 171.000 M271.200 171.800 C 271.750 172.114,272.380 172.372,272.600 172.372 C 272.820 172.372,272.550 172.114,272.000 171.800 C 271.450 171.486,270.820 171.228,270.600 171.228 C 270.380 171.228,270.650 171.486,271.200 171.800 M87.239 172.222 C 86.491 172.547,85.979 172.913,86.102 173.035 C 86.224 173.158,87.016 172.893,87.862 172.447 C 89.646 171.505,89.233 171.356,87.239 172.222 M84.623 173.432 C 84.197 173.744,82.937 174.344,81.824 174.764 C 80.711 175.185,79.260 175.755,78.600 176.031 C 77.940 176.307,77.310 176.553,77.200 176.577 C 76.749 176.676,75.424 177.577,75.712 177.588 C 76.705 177.627,85.927 173.393,85.588 173.054 C 85.484 172.950,85.050 173.121,84.623 173.432 M271.200 177.200 C 271.750 177.630,272.414 177.986,272.676 177.991 C 274.301 178.021,273.332 178.800,271.669 178.800 C 269.777 178.800,269.683 178.748,269.515 177.600 C 269.309 176.200,269.779 176.089,271.200 177.200 M68.000 179.446 C 63.029 180.684,60.993 181.331,61.517 181.506 C 62.004 181.668,71.492 179.277,72.400 178.764 C 73.376 178.212,72.260 178.385,68.000 179.446 M287.900 179.096 C 289.275 179.174,291.525 179.174,292.900 179.096 C 294.275 179.018,293.150 178.954,290.400 178.954 C 287.650 178.954,286.525 179.018,287.900 179.096 M296.000 179.155 C 296.330 179.341,300.956 179.606,306.281 179.744 C 311.605 179.882,318.625 180.111,321.881 180.253 C 325.136 180.395,327.710 180.420,327.600 180.308 C 327.327 180.031,319.265 179.650,308.200 179.389 C 303.140 179.270,298.190 179.093,297.200 178.995 C 296.103 178.887,295.634 178.950,296.000 179.155 M158.876 180.508 C 158.427 181.050,161.419 181.118,186.686 181.137 C 229.971 181.170,278.671 181.581,289.800 182.008 C 303.693 182.540,309.343 182.788,312.600 183.009 C 327.019 183.987,333.059 184.516,333.380 184.830 C 333.589 185.033,334.157 185.200,334.641 185.200 C 335.209 185.200,337.493 186.988,341.061 190.226 L 346.600 195.251 341.600 190.398 C 335.333 184.315,335.661 184.524,331.600 184.032 C 314.445 181.956,282.660 180.926,226.200 180.617 C 203.980 180.495,179.855 180.284,172.590 180.148 C 161.064 179.933,159.316 179.979,158.876 180.508 M328.000 180.375 C 328.000 180.620,328.876 180.800,330.067 180.800 C 332.541 180.800,332.483 180.602,329.900 180.227 C 328.654 180.046,328.000 180.097,328.000 180.375 M335.200 180.817 C 338.465 181.268,342.422 181.237,340.200 180.777 C 339.320 180.595,337.340 180.461,335.800 180.479 L 333.000 180.513 335.200 180.817 M345.907 181.490 C 346.626 181.579,347.706 181.577,348.307 181.486 C 348.908 181.395,348.320 181.322,347.000 181.324 C 345.680 181.326,345.188 181.401,345.907 181.490 M353.345 183.080 C 354.588 185.510,354.295 185.581,347.000 184.604 C 341.385 183.853,340.000 183.843,340.000 184.553 C 340.000 185.337,342.907 187.867,344.640 188.591 C 346.441 189.343,346.830 189.348,345.850 188.606 C 344.939 187.917,345.258 186.800,346.365 186.800 C 346.799 186.800,347.421 186.419,347.747 185.954 L 348.340 185.107 351.170 186.189 C 354.464 187.447,354.774 187.966,352.100 187.744 C 350.041 187.573,350.154 187.680,353.600 189.167 L 355.400 189.943 353.600 189.990 L 351.800 190.037 353.767 190.805 C 356.448 191.852,356.945 192.422,354.965 192.179 L 353.400 191.988 355.100 192.677 C 356.754 193.347,357.312 193.974,356.300 194.025 C 356.025 194.039,356.187 194.207,356.661 194.398 C 357.435 194.710,358.339 196.542,359.376 199.900 C 359.735 201.062,359.793 201.065,352.702 199.547 C 347.623 198.460,346.901 198.213,347.502 197.765 C 348.156 197.279,348.140 197.187,347.255 196.323 L 346.309 195.400 346.796 196.351 C 347.179 197.100,347.178 197.366,346.790 197.606 C 345.936 198.134,346.686 198.647,349.082 199.177 C 350.357 199.459,351.580 199.830,351.800 200.001 C 352.020 200.173,352.920 200.416,353.800 200.542 C 354.680 200.668,356.210 200.949,357.200 201.168 C 359.713 201.723,360.001 201.695,359.995 200.900 C 359.986 199.751,358.544 195.575,357.230 192.896 C 356.555 191.519,356.030 190.259,356.063 190.096 C 356.161 189.617,354.851 186.878,354.387 186.592 C 354.087 186.407,354.091 186.173,354.398 185.803 C 354.979 185.103,354.526 183.435,353.509 182.529 C 352.691 181.801,352.691 181.801,353.345 183.080 M345.700 184.914 C 347.521 185.000,347.708 185.864,346.032 186.449 C 345.390 186.673,344.764 187.117,344.641 187.437 C 344.455 187.921,344.266 187.933,343.509 187.509 C 340.439 185.790,339.882 184.173,342.500 184.580 C 343.435 184.725,344.875 184.876,345.700 184.914 M41.818 190.100 C 40.943 192.894,39.177 199.711,39.298 199.831 C 39.383 199.916,39.781 198.864,40.183 197.493 C 40.584 196.122,41.137 194.280,41.412 193.400 C 42.146 191.052,42.445 189.600,42.195 189.600 C 42.074 189.600,41.904 189.825,41.818 190.100 M349.493 203.897 C 349.627 204.720,349.975 205.633,350.268 205.925 C 350.561 206.218,350.800 206.686,350.800 206.967 C 350.800 208.120,352.241 208.726,355.650 209.004 C 360.993 209.441,360.931 207.741,355.557 206.480 C 352.952 205.869,352.609 205.666,351.535 204.106 C 350.029 201.917,349.157 201.828,349.493 203.897 M355.579 206.963 C 358.878 207.761,360.360 209.009,357.600 208.666 C 356.610 208.543,354.875 208.328,353.743 208.189 L 351.687 207.937 350.843 205.733 C 349.718 202.793,349.758 202.728,351.501 204.670 C 352.744 206.055,353.440 206.446,355.579 206.963 M89.200 215.133 L 89.400 222.200 93.100 222.315 C 98.230 222.474,97.820 223.200,92.600 223.200 L 88.400 223.200 88.400 215.733 C 88.400 211.627,88.304 208.362,88.188 208.479 C 87.345 209.322,87.954 223.023,88.856 223.509 C 90.564 224.429,96.972 223.997,97.121 222.952 C 97.271 221.898,96.683 221.734,92.900 221.771 C 90.589 221.794,89.994 221.678,89.971 221.200 C 89.954 220.870,89.964 217.975,89.991 214.766 C 90.029 210.413,89.909 208.823,89.521 208.499 C 89.095 208.145,89.037 209.357,89.200 215.133 M113.467 208.267 C 113.320 208.413,113.200 211.833,113.200 215.867 C 113.200 222.414,112.934 224.358,112.265 222.700 C 112.144 222.401,112.050 222.482,112.032 222.900 C 112.012 223.339,112.292 223.600,112.784 223.600 C 113.531 223.600,113.573 223.239,113.684 215.800 C 113.748 211.509,113.785 207.999,113.767 208.000 C 113.748 208.000,113.613 208.120,113.467 208.267 M130.108 208.500 C 129.401 209.405,129.444 222.573,130.155 223.163 C 131.345 224.150,131.600 223.234,131.600 217.976 C 131.600 212.436,131.820 211.940,133.232 214.300 C 133.726 215.125,134.469 216.180,134.883 216.645 C 135.297 217.110,135.583 217.650,135.518 217.845 C 135.453 218.040,135.580 218.200,135.800 218.200 C 136.371 218.200,136.253 217.972,133.697 214.131 L 131.400 210.677 131.290 216.939 C 131.131 225.971,130.400 225.035,130.400 215.800 C 130.400 211.730,130.535 208.403,130.700 208.407 C 130.865 208.411,132.239 210.301,133.754 212.607 C 137.094 217.693,136.580 217.697,140.029 212.557 C 143.570 207.278,143.647 207.352,143.510 215.931 C 143.405 222.494,142.978 224.627,142.335 221.800 C 142.069 220.632,142.064 220.637,142.131 222.000 C 142.186 223.122,142.379 223.425,143.100 223.528 L 144.000 223.656 144.000 216.071 C 144.000 206.924,143.132 206.012,140.038 211.911 C 139.773 212.416,139.363 212.701,139.118 212.549 C 138.842 212.379,138.790 212.461,138.980 212.768 C 139.156 213.052,138.951 213.627,138.497 214.130 C 138.064 214.608,137.541 215.318,137.336 215.706 C 136.933 216.466,136.209 215.617,132.725 210.300 C 131.166 207.921,130.771 207.650,130.108 208.500 M166.671 208.361 C 175.926 209.256,175.671 223.292,166.400 223.292 C 159.396 223.292,156.792 213.388,162.733 209.343 C 163.918 208.536,163.935 208.489,163.034 208.543 C 162.508 208.574,162.155 208.727,162.251 208.882 C 162.347 209.038,161.985 209.453,161.447 209.806 C 159.216 211.268,158.439 216.364,159.932 219.739 C 162.396 225.311,171.937 224.999,173.551 219.294 C 173.974 217.800,173.791 212.568,173.296 211.989 C 173.018 211.665,172.403 210.883,171.928 210.252 C 170.782 208.725,168.888 207.987,166.313 208.061 L 164.200 208.122 166.671 208.361 M188.003 208.389 C 186.993 209.028,188.148 209.713,190.576 209.915 L 192.781 210.097 192.891 216.749 C 192.995 223.097,193.036 223.400,193.800 223.400 C 194.568 223.400,194.600 223.133,194.600 216.700 L 194.600 209.999 196.467 210.000 C 198.787 210.000,199.602 209.702,199.594 208.857 C 199.590 208.405,199.493 208.349,199.284 208.677 C 199.117 208.940,197.905 209.210,196.590 209.277 L 194.200 209.400 194.091 216.300 C 194.025 220.447,193.825 223.200,193.591 223.200 C 193.351 223.200,193.200 220.487,193.200 216.200 L 193.200 209.200 190.800 209.200 C 185.970 209.200,188.476 208.421,193.700 208.299 L 199.000 208.175 193.800 208.093 C 190.940 208.049,188.332 208.182,188.003 208.389 M221.000 208.361 C 229.384 209.196,230.714 221.389,222.610 223.117 C 214.839 224.774,210.484 213.739,217.159 209.303 C 217.907 208.806,218.288 208.400,218.007 208.400 C 217.725 208.400,216.732 209.165,215.799 210.100 C 208.848 217.071,218.487 228.683,225.722 222.053 C 231.365 216.882,228.104 207.842,220.674 208.061 L 218.600 208.122 221.000 208.361 M243.600 214.231 L 243.800 220.388 245.188 221.694 C 245.959 222.419,246.203 222.555,245.738 222.000 C 244.163 220.121,244.000 219.355,244.000 213.850 C 244.000 210.878,243.865 208.363,243.700 208.261 C 243.535 208.158,243.490 210.845,243.600 214.231 M244.803 213.737 C 245.023 219.864,245.307 220.821,247.192 221.796 C 249.353 222.913,251.794 222.352,253.094 220.438 C 253.998 219.109,254.553 207.964,253.700 208.293 C 253.333 208.434,253.200 209.973,253.200 214.074 L 253.200 219.662 252.031 220.831 C 250.728 222.134,249.490 222.299,247.441 221.443 C 245.599 220.673,245.200 219.234,245.200 213.364 C 245.200 210.660,245.065 208.363,244.900 208.261 C 244.735 208.158,244.691 210.622,244.803 213.737 M255.067 208.267 C 254.920 208.413,254.800 210.888,254.799 213.767 C 254.799 220.996,253.417 223.330,249.175 223.272 C 248.281 223.260,247.685 223.414,247.815 223.625 C 248.394 224.561,251.074 223.996,252.934 222.546 C 253.960 221.747,254.827 221.072,254.860 221.046 C 254.922 220.999,255.427 207.998,255.367 207.999 C 255.348 208.000,255.213 208.120,255.067 208.267 M271.640 208.552 C 271.323 208.934,271.215 211.320,271.291 216.252 L 271.400 223.400 272.400 223.400 C 273.382 223.400,273.400 223.345,273.380 220.300 L 273.360 217.200 275.906 217.200 C 278.897 217.200,280.000 217.675,280.000 218.964 C 280.000 220.384,280.463 222.400,280.789 222.400 C 281.348 222.400,280.375 217.802,279.710 217.300 C 279.311 216.999,277.802 216.800,275.924 216.800 L 272.800 216.800 272.800 220.033 C 272.800 222.442,272.673 223.224,272.300 223.100 C 271.925 222.975,271.800 221.144,271.800 215.767 L 271.800 208.600 275.400 208.376 L 279.000 208.151 275.549 208.076 C 273.027 208.020,271.974 208.149,271.640 208.552 M302.800 208.371 C 305.293 208.659,306.800 209.353,306.800 210.214 C 306.800 210.973,306.434 210.955,305.548 210.153 C 304.007 208.758,299.782 209.194,299.273 210.800 C 299.139 211.225,299.346 211.166,299.984 210.600 C 301.163 209.552,304.378 209.494,305.490 210.500 C 306.515 211.428,307.200 211.386,307.200 210.394 C 307.200 209.129,304.960 207.993,302.600 208.060 L 300.600 208.118 302.800 208.371 M280.118 209.038 C 282.185 210.159,282.583 212.845,280.968 214.765 L 279.936 215.992 280.768 217.050 C 281.318 217.750,281.600 218.691,281.600 219.830 C 281.600 220.778,281.780 221.664,282.000 221.800 C 282.654 222.204,282.477 223.315,281.800 223.055 C 281.470 222.929,281.200 222.999,281.200 223.213 C 281.200 223.652,281.658 223.706,282.534 223.370 C 283.060 223.168,283.064 222.971,282.567 221.783 C 282.255 221.036,282.000 219.824,282.000 219.089 C 282.000 218.354,281.761 217.426,281.469 217.026 C 281.019 216.411,281.050 216.080,281.669 214.865 C 283.028 212.198,281.752 208.349,279.531 208.416 C 279.239 208.425,279.503 208.705,280.118 209.038 M298.636 209.631 C 296.447 212.232,297.881 215.184,302.018 216.591 C 304.698 217.503,305.600 218.261,305.600 219.600 C 305.600 221.879,302.285 222.781,299.700 221.204 C 298.985 220.768,298.400 220.502,298.400 220.612 C 298.400 221.837,302.878 222.808,304.526 221.940 C 307.461 220.395,306.284 217.750,301.889 216.012 C 297.965 214.460,296.871 211.868,299.169 209.569 C 299.812 208.926,300.188 208.400,300.005 208.400 C 299.821 208.400,299.205 208.954,298.636 209.631 M163.594 209.930 C 159.610 212.015,159.430 219.146,163.300 221.538 C 167.490 224.128,172.399 221.032,172.399 215.800 C 172.399 210.689,167.888 207.682,163.594 209.930 M218.004 209.942 C 212.444 212.924,214.719 222.404,220.994 222.399 C 224.465 222.395,226.797 219.743,226.797 215.800 C 226.797 210.608,222.322 207.626,218.004 209.942 M272.800 212.381 C 272.800 214.432,272.947 215.556,273.196 215.403 C 273.419 215.265,273.519 214.038,273.426 212.579 L 273.260 210.000 276.141 210.000 C 278.147 210.000,279.322 210.200,280.011 210.658 L 281.000 211.316 280.091 210.360 C 279.312 209.541,278.730 209.385,275.991 209.260 L 272.800 209.115 272.800 212.381 M169.769 210.617 C 173.032 212.754,172.471 219.975,168.927 221.456 C 164.734 223.208,160.553 220.045,160.901 215.384 C 161.251 210.702,166.001 208.148,169.769 210.617 M224.084 210.445 C 225.958 211.448,226.899 215.821,225.877 218.786 C 224.388 223.110,218.178 223.066,215.957 218.716 C 213.194 213.302,218.787 207.610,224.084 210.445 M139.537 214.814 C 138.072 217.006,136.992 218.800,137.137 218.800 C 137.528 218.800,139.321 216.438,140.400 214.500 C 141.384 212.734,141.793 212.451,142.135 213.300 C 142.246 213.575,142.351 213.125,142.368 212.300 C 142.409 210.384,142.626 210.191,139.537 214.814 M280.400 212.200 C 280.400 212.530,280.580 212.800,280.800 212.800 C 281.020 212.800,281.200 212.530,281.200 212.200 C 281.200 211.870,281.020 211.600,280.800 211.600 C 280.580 211.600,280.400 211.870,280.400 212.200 M299.212 212.638 C 299.187 213.549,303.304 216.029,303.882 215.451 C 303.990 215.344,303.156 214.859,302.029 214.374 C 300.902 213.889,299.810 213.202,299.602 212.846 C 299.394 212.491,299.219 212.397,299.212 212.638 M279.546 214.441 C 278.966 215.079,278.620 215.600,278.776 215.600 C 279.168 215.600,280.977 213.641,280.768 213.443 C 280.676 213.354,280.126 213.804,279.546 214.441 M305.849 216.800 C 306.316 217.350,306.797 218.070,306.918 218.400 C 307.105 218.914,307.141 218.909,307.168 218.370 C 307.186 218.023,306.705 217.303,306.100 216.770 L 305.000 215.800 305.849 216.800 M306.800 220.938 C 306.800 222.461,303.474 223.758,301.000 223.200 C 300.230 223.026,299.600 223.037,299.600 223.224 C 299.600 224.546,304.894 224.047,306.236 222.599 C 307.094 221.673,307.536 220.400,307.000 220.400 C 306.890 220.400,306.800 220.642,306.800 220.938 " stroke="none" fill="#6b6b6b" fill-rule="evenodd"></path><path id="path1" d="M182.400 163.470 C 140.190 164.099,111.399 165.460,102.027 167.268 C 100.000 167.659,92.787 170.506,86.800 173.278 C 76.902 177.862,66.082 181.355,57.800 182.639 C 56.600 182.826,56.152 183.010,56.681 183.100 C 60.672 183.782,74.795 179.879,86.600 174.831 C 100.455 168.908,101.805 168.563,115.000 167.588 C 133.538 166.217,173.988 165.457,216.804 165.674 L 250.608 165.846 256.404 168.694 C 263.012 171.940,273.701 177.587,274.000 177.989 C 274.110 178.137,274.541 178.384,274.957 178.539 C 275.374 178.693,275.623 178.910,275.511 179.022 C 275.307 179.226,228.349 179.283,228.146 179.079 C 228.086 179.019,227.871 177.807,227.668 176.385 C 227.312 173.891,227.296 173.863,227.207 175.600 C 227.013 179.396,227.689 179.000,221.400 179.000 L 215.800 179.000 215.352 176.000 L 214.904 173.000 214.852 176.100 L 214.800 179.200 186.641 179.200 L 158.483 179.200 158.018 175.700 C 157.344 170.618,157.298 170.582,157.246 175.100 L 157.200 179.200 151.400 179.200 L 145.600 179.200 145.553 177.700 C 145.454 174.578,144.898 173.631,144.847 176.500 L 144.800 179.200 140.100 179.276 L 135.400 179.351 140.200 179.576 C 142.840 179.699,145.225 179.946,145.500 180.124 C 145.789 180.311,146.000 180.268,146.000 180.024 C 146.000 179.427,157.288 179.448,157.885 180.045 C 158.130 180.290,158.522 180.372,158.756 180.227 C 159.246 179.925,203.150 179.902,217.200 180.197 C 222.370 180.305,239.650 180.489,255.600 180.605 C 271.550 180.721,287.930 180.992,292.000 181.208 C 318.362 182.604,330.899 183.450,333.851 184.032 C 336.182 184.492,347.648 195.057,348.199 197.253 C 348.449 198.250,358.292 201.042,359.013 200.320 C 359.844 199.490,356.128 194.000,354.735 194.000 C 354.504 194.000,354.417 193.732,354.543 193.404 C 354.696 193.004,354.447 192.727,353.786 192.561 C 352.554 192.252,352.509 191.701,353.700 191.516 C 354.432 191.402,354.302 191.276,353.000 190.840 C 350.669 190.058,350.389 189.604,352.220 189.572 L 353.800 189.544 351.524 188.662 C 348.470 187.479,348.305 187.205,350.633 187.174 L 352.600 187.148 350.480 186.313 L 348.361 185.478 347.758 186.339 C 347.426 186.813,346.790 187.200,346.344 187.200 C 345.177 187.200,345.605 188.037,347.360 189.189 C 348.189 189.733,348.682 190.239,348.455 190.315 C 347.668 190.577,342.592 187.939,341.100 186.492 C 338.185 183.666,339.127 183.347,347.500 184.327 C 354.160 185.106,354.661 184.969,352.900 182.844 C 352.232 182.038,351.571 181.972,338.600 181.396 C 331.120 181.064,321.670 180.622,317.600 180.413 C 313.530 180.205,304.721 179.911,298.025 179.762 L 285.850 179.489 275.407 174.245 C 269.663 171.360,263.892 168.515,262.582 167.922 C 256.555 165.195,253.628 164.009,251.981 163.630 C 250.411 163.268,203.219 163.160,182.400 163.470 M265.448 176.800 C 266.749 178.206,269.200 179.108,269.200 178.180 C 269.200 176.543,267.365 175.217,265.084 175.205 L 263.968 175.200 265.448 176.800 M53.700 183.476 C 54.085 183.576,54.715 183.576,55.100 183.476 C 55.485 183.375,55.170 183.293,54.400 183.293 C 53.630 183.293,53.315 183.375,53.700 183.476 M46.418 185.499 C 43.170 185.651,42.079 186.131,42.855 187.066 C 43.202 187.484,43.207 188.003,42.875 189.113 C 42.631 189.931,41.996 192.040,41.463 193.800 C 40.931 195.560,40.184 198.080,39.804 199.400 C 39.423 200.720,38.844 202.667,38.515 203.726 C 37.268 207.750,37.664 207.359,43.092 199.200 C 53.091 184.172,52.547 185.167,50.700 185.279 C 49.985 185.323,48.058 185.422,46.418 185.499 M350.813 204.840 C 350.806 204.972,350.995 205.639,351.232 206.321 C 351.691 207.637,351.463 207.561,357.000 208.238 C 359.231 208.511,358.055 207.853,354.863 207.042 C 353.299 206.645,352.039 206.053,351.576 205.499 C 351.164 205.004,350.821 204.708,350.813 204.840 M112.567 215.800 C 112.567 219.980,112.626 221.636,112.698 219.479 C 112.771 217.323,112.770 213.903,112.698 211.879 C 112.625 209.856,112.566 211.620,112.567 215.800 M140.054 212.800 C 138.433 215.220,136.993 217.197,136.854 217.193 C 136.714 217.189,135.361 215.299,133.846 212.993 C 132.332 210.687,130.937 208.800,130.746 208.800 C 130.556 208.800,130.400 211.961,130.400 215.824 C 130.400 220.197,130.545 222.758,130.783 222.610 C 131.002 222.475,131.146 219.898,131.118 216.585 C 131.059 209.458,130.936 209.552,134.038 214.375 C 137.138 219.195,136.500 219.191,139.607 214.412 C 141.033 212.218,142.331 210.418,142.490 210.412 C 142.650 210.405,142.834 213.325,142.901 216.900 L 143.021 223.400 143.111 215.900 C 143.160 211.775,143.155 208.400,143.100 208.400 C 143.045 208.400,141.674 210.380,140.054 212.800 M163.332 209.117 C 160.243 210.781,158.780 215.122,160.130 218.614 C 163.030 226.112,173.200 223.923,173.200 215.800 C 173.200 210.285,167.867 206.673,163.332 209.117 M188.400 208.800 C 188.400 209.022,189.467 209.200,190.800 209.200 L 193.200 209.200 193.200 216.000 C 193.200 220.267,193.349 222.800,193.600 222.800 C 193.851 222.800,194.000 220.267,194.000 216.000 L 194.000 209.200 196.624 209.200 C 198.271 209.200,199.155 209.051,199.000 208.800 C 198.856 208.567,196.596 208.400,193.576 208.400 C 190.392 208.400,188.400 208.554,188.400 208.800 M218.200 208.965 C 211.453 211.963,213.521 223.200,220.820 223.200 C 224.970 223.200,227.600 220.330,227.600 215.800 C 227.600 210.243,222.943 206.857,218.200 208.965 M272.075 215.860 C 272.129 221.344,272.211 222.473,272.375 220.000 L 272.600 216.600 275.859 216.600 C 279.815 216.600,280.800 217.215,280.800 219.688 C 280.800 221.388,281.373 222.800,282.063 222.800 C 282.357 222.800,282.369 222.638,282.099 222.300 C 281.880 222.025,281.573 220.900,281.416 219.800 C 281.249 218.621,280.778 217.419,280.268 216.870 C 279.443 215.982,279.437 215.923,280.140 215.530 C 281.216 214.927,282.020 212.734,281.659 211.385 C 281.117 209.355,279.580 208.617,275.571 208.460 L 272.000 208.320 272.075 215.860 M299.360 209.760 C 297.016 212.104,298.135 214.307,302.600 216.139 C 306.830 217.876,307.581 220.526,304.300 222.132 C 302.527 222.999,301.086 222.790,298.975 221.357 C 298.177 220.816,297.600 220.604,297.693 220.886 C 298.434 223.144,303.440 223.956,305.569 222.164 C 308.222 219.932,306.972 216.939,302.753 215.422 C 298.987 214.068,297.782 211.896,299.764 210.034 C 301.094 208.785,303.847 208.752,305.550 209.965 C 306.238 210.454,306.800 210.660,306.800 210.421 C 306.800 208.277,301.329 207.791,299.360 209.760 M88.491 215.900 L 88.600 223.000 92.364 223.116 C 94.596 223.185,96.298 223.062,96.544 222.816 C 96.832 222.528,95.765 222.400,93.080 222.400 L 89.200 222.400 89.200 215.600 C 89.200 211.231,89.054 208.800,88.791 208.800 C 88.523 208.800,88.419 211.255,88.491 215.900 M169.874 209.932 C 172.528 211.353,173.481 216.756,171.611 219.782 C 168.242 225.234,160.375 222.486,160.315 215.836 C 160.267 210.468,165.191 207.426,169.874 209.932 M244.000 213.674 C 244.000 219.194,244.645 221.263,246.753 222.509 C 249.266 223.993,252.676 222.824,254.099 219.992 C 254.896 218.407,255.154 208.800,254.400 208.800 C 254.153 208.800,254.000 210.856,254.000 214.169 C 254.000 220.221,253.498 221.444,250.621 222.393 C 246.649 223.704,244.800 221.085,244.800 214.146 C 244.800 210.849,244.647 208.800,244.400 208.800 C 244.155 208.800,244.000 210.691,244.000 213.674 M224.323 210.010 C 228.388 212.488,227.951 219.692,223.600 221.923 C 218.212 224.684,212.845 218.653,215.352 212.654 C 216.699 209.429,221.196 208.103,224.323 210.010 M280.218 210.182 C 283.045 213.009,280.271 216.161,275.167 215.921 L 272.600 215.800 272.480 213.040 C 272.311 209.134,272.251 209.200,276.006 209.200 C 278.902 209.200,279.338 209.301,280.218 210.182 " stroke="none" fill="#f6f6f6" fill-rule="evenodd"></path><path id="path2" d="M222.716 163.097 C 224.099 163.175,226.259 163.174,227.516 163.095 C 228.772 163.016,227.640 162.952,225.000 162.953 C 222.360 162.953,221.332 163.018,222.716 163.097 M179.119 163.498 C 180.944 163.572,183.824 163.572,185.519 163.497 C 187.214 163.422,185.720 163.361,182.200 163.362 C 178.680 163.362,177.294 163.424,179.119 163.498 M158.915 163.896 C 160.188 163.976,162.168 163.975,163.315 163.894 C 164.462 163.814,163.420 163.749,161.000 163.750 C 158.580 163.751,157.642 163.816,158.915 163.896 M145.907 164.290 C 146.626 164.379,147.706 164.377,148.307 164.286 C 148.908 164.195,148.320 164.122,147.000 164.124 C 145.680 164.126,145.188 164.201,145.907 164.290 M133.705 164.687 C 134.314 164.779,135.214 164.777,135.705 164.682 C 136.197 164.587,135.700 164.511,134.600 164.514 C 133.500 164.517,133.097 164.595,133.705 164.687 M125.700 165.076 C 126.085 165.176,126.715 165.176,127.100 165.076 C 127.485 164.975,127.170 164.893,126.400 164.893 C 125.630 164.893,125.315 164.975,125.700 165.076 M118.100 165.476 C 118.485 165.576,119.115 165.576,119.500 165.476 C 119.885 165.375,119.570 165.293,118.800 165.293 C 118.030 165.293,117.715 165.375,118.100 165.476 M112.900 165.876 C 113.285 165.976,113.915 165.976,114.300 165.876 C 114.685 165.775,114.370 165.693,113.600 165.693 C 112.830 165.693,112.515 165.775,112.900 165.876 M186.530 165.900 C 196.172 165.960,211.832 165.960,221.330 165.900 C 230.829 165.840,222.940 165.791,203.800 165.791 C 184.660 165.791,176.889 165.840,186.530 165.900 M150.117 166.297 C 151.611 166.374,153.951 166.374,155.317 166.296 C 156.682 166.218,155.460 166.155,152.600 166.155 C 149.740 166.156,148.622 166.220,150.117 166.297 M248.700 166.282 C 249.195 166.378,250.005 166.378,250.500 166.282 C 250.995 166.187,250.590 166.109,249.600 166.109 C 248.610 166.109,248.205 166.187,248.700 166.282 M135.712 166.695 C 136.764 166.777,138.384 166.776,139.312 166.692 C 140.240 166.608,139.380 166.541,137.400 166.542 C 135.420 166.543,134.660 166.612,135.712 166.695 M124.700 167.089 C 125.415 167.178,126.585 167.178,127.300 167.089 C 128.015 167.001,127.430 166.928,126.000 166.928 C 124.570 166.928,123.985 167.001,124.700 167.089 M118.705 167.483 C 119.202 167.579,119.922 167.575,120.305 167.475 C 120.687 167.375,120.280 167.296,119.400 167.301 C 118.520 167.305,118.207 167.387,118.705 167.483 M111.700 167.876 C 112.085 167.976,112.715 167.976,113.100 167.876 C 113.485 167.775,113.170 167.693,112.400 167.693 C 111.630 167.693,111.315 167.775,111.700 167.876 M226.891 174.000 C 226.899 177.125,226.924 177.232,227.204 175.321 C 227.371 174.177,227.367 172.647,227.195 171.921 C 226.967 170.958,226.884 171.521,226.891 174.000 M214.468 175.620 L 214.535 179.400 214.785 176.000 C 214.923 174.130,214.892 172.429,214.718 172.220 C 214.543 172.011,214.430 173.541,214.468 175.620 M144.460 175.820 L 144.521 179.400 144.805 176.200 C 144.961 174.440,144.934 172.829,144.744 172.620 C 144.550 172.405,144.426 173.797,144.460 175.820 M263.020 175.173 C 263.242 175.392,263.981 175.409,264.800 175.214 L 266.200 174.882 264.420 174.841 C 263.314 174.815,262.784 174.941,263.020 175.173 M278.433 175.751 C 278.842 176.121,282.000 177.595,282.000 177.416 C 282.000 177.189,278.981 175.600,278.549 175.600 C 278.394 175.600,278.342 175.668,278.433 175.751 M127.425 179.560 C 127.230 179.875,129.681 180.000,136.043 180.000 C 140.933 180.000,144.858 179.931,144.767 179.847 C 144.307 179.426,127.678 179.151,127.425 179.560 M287.511 179.493 C 288.451 179.578,289.891 179.577,290.711 179.491 C 291.530 179.405,290.760 179.336,289.000 179.337 C 287.240 179.339,286.570 179.409,287.511 179.493 M148.918 179.898 C 150.633 179.973,153.333 179.972,154.918 179.897 C 156.503 179.821,155.100 179.759,151.800 179.760 C 148.500 179.761,147.203 179.822,148.918 179.898 M300.500 179.894 C 301.545 179.976,303.255 179.976,304.300 179.894 C 305.345 179.812,304.490 179.744,302.400 179.744 C 300.310 179.744,299.455 179.812,300.500 179.894 M194.074 180.299 C 197.745 180.365,203.865 180.365,207.674 180.299 C 211.483 180.234,208.480 180.180,201.000 180.180 C 193.520 180.179,190.403 180.233,194.074 180.299 M314.500 180.287 C 315.105 180.378,316.095 180.378,316.700 180.287 C 317.305 180.195,316.810 180.120,315.600 180.120 C 314.390 180.120,313.895 180.195,314.500 180.287 M247.723 180.699 C 250.541 180.768,255.041 180.768,257.723 180.699 C 260.405 180.630,258.100 180.573,252.600 180.573 C 247.100 180.574,244.905 180.630,247.723 180.699 M322.500 180.687 C 323.105 180.778,324.095 180.778,324.700 180.687 C 325.305 180.595,324.810 180.520,323.600 180.520 C 322.390 180.520,321.895 180.595,322.500 180.687 M283.300 181.091 C 284.125 181.178,285.475 181.178,286.300 181.091 C 287.125 181.005,286.450 180.934,284.800 180.934 C 283.150 180.934,282.475 181.005,283.300 181.091 M330.500 181.087 C 331.105 181.178,332.095 181.178,332.700 181.087 C 333.305 180.995,332.810 180.920,331.600 180.920 C 330.390 180.920,329.895 180.995,330.500 181.087 M292.300 181.482 C 292.795 181.578,293.605 181.578,294.100 181.482 C 294.595 181.387,294.190 181.309,293.200 181.309 C 292.210 181.309,291.805 181.387,292.300 181.482 M339.705 181.487 C 340.314 181.579,341.214 181.577,341.705 181.482 C 342.197 181.387,341.700 181.311,340.600 181.314 C 339.500 181.317,339.097 181.395,339.705 181.487 M301.500 181.882 C 301.995 181.978,302.805 181.978,303.300 181.882 C 303.795 181.787,303.390 181.709,302.400 181.709 C 301.410 181.709,301.005 181.787,301.500 181.882 M348.900 181.887 C 349.505 181.978,350.495 181.978,351.100 181.887 C 351.705 181.795,351.210 181.720,350.000 181.720 C 348.790 181.720,348.295 181.795,348.900 181.887 M308.305 182.283 C 308.802 182.379,309.522 182.375,309.905 182.275 C 310.287 182.175,309.880 182.096,309.000 182.101 C 308.120 182.105,307.807 182.187,308.305 182.283 M55.200 183.200 C 55.530 183.413,56.070 183.588,56.400 183.588 C 56.933 183.588,56.933 183.545,56.400 183.200 C 56.070 182.987,55.530 182.812,55.200 182.812 C 54.667 182.812,54.667 182.855,55.200 183.200 M320.900 183.076 C 321.285 183.176,321.915 183.176,322.300 183.076 C 322.685 182.975,322.370 182.893,321.600 182.893 C 320.830 182.893,320.515 182.975,320.900 183.076 M51.400 183.600 C 50.761 183.875,50.907 183.949,52.124 183.972 C 53.044 183.989,53.549 183.842,53.400 183.600 C 53.108 183.128,52.499 183.128,51.400 183.600 M339.632 184.438 C 339.614 184.789,340.005 185.419,340.500 185.838 C 341.392 186.594,341.394 186.593,340.752 185.800 C 340.396 185.360,340.005 184.730,339.884 184.400 C 339.697 183.891,339.658 183.896,339.632 184.438 M336.800 185.800 C 337.546 186.570,338.247 187.200,338.357 187.200 C 338.467 187.200,337.946 186.570,337.200 185.800 C 336.454 185.030,335.753 184.400,335.643 184.400 C 335.533 184.400,336.054 185.030,336.800 185.800 M351.800 187.227 C 351.149 187.485,351.241 187.549,352.300 187.572 C 353.652 187.601,353.958 187.420,353.100 187.098 C 352.825 186.995,352.240 187.053,351.800 187.227 M343.200 191.800 C 344.617 193.230,345.867 194.400,345.977 194.400 C 346.087 194.400,345.017 193.230,343.600 191.800 C 342.183 190.370,340.933 189.200,340.823 189.200 C 340.713 189.200,341.783 190.370,343.200 191.800 M346.840 189.575 C 346.480 189.798,346.652 189.976,347.409 190.167 C 348.738 190.500,349.140 190.210,348.113 189.660 C 347.697 189.438,347.124 189.399,346.840 189.575 M353.164 189.631 C 352.753 189.891,352.899 189.989,353.700 189.994 C 354.894 190.001,355.110 189.804,354.264 189.480 C 353.969 189.367,353.474 189.435,353.164 189.631 M353.700 191.510 C 352.231 191.748,352.678 192.254,354.200 192.076 C 354.970 191.986,355.600 191.861,355.600 191.799 C 355.600 191.537,354.535 191.375,353.700 191.510 M354.692 193.042 C 354.256 193.477,354.338 193.891,354.902 194.107 C 355.178 194.213,355.667 194.018,355.989 193.674 C 356.505 193.121,356.496 193.077,355.913 193.301 C 355.549 193.441,355.191 193.374,355.118 193.153 C 355.044 192.931,354.852 192.881,354.692 193.042 M356.220 194.909 C 356.328 195.188,356.781 195.645,357.227 195.924 C 358.018 196.418,358.022 196.405,357.373 195.415 C 356.686 194.366,355.875 194.010,356.220 194.909 M112.965 215.800 C 112.966 219.760,113.026 221.326,113.098 219.280 C 113.171 217.234,113.171 213.994,113.098 212.080 C 113.024 210.166,112.965 211.840,112.965 215.800 M143.365 215.800 C 143.366 219.760,143.426 221.326,143.498 219.280 C 143.571 217.234,143.571 213.994,143.498 212.080 C 143.424 210.166,143.365 211.840,143.365 215.800 M272.573 212.699 L 272.600 215.800 275.400 215.826 L 278.200 215.852 275.517 215.709 L 272.833 215.566 272.689 212.581 L 272.546 209.597 272.573 212.699 M227.701 215.800 C 227.705 216.680,227.787 216.993,227.883 216.495 C 227.979 215.998,227.975 215.278,227.875 214.895 C 227.775 214.513,227.696 214.920,227.701 215.800 M272.537 219.800 C 272.539 221.560,272.609 222.230,272.693 221.289 C 272.778 220.349,272.777 218.909,272.691 218.089 C 272.605 217.270,272.536 218.040,272.537 219.800 " stroke="none" fill="#adadad" fill-rule="evenodd"></path><path id="path3" d="M206.700 163.097 C 208.295 163.173,210.905 163.173,212.500 163.097 C 214.095 163.021,212.790 162.959,209.600 162.959 C 206.410 162.959,205.105 163.021,206.700 163.097 M234.716 163.097 C 236.099 163.175,238.259 163.174,239.516 163.095 C 240.772 163.016,239.640 162.952,237.000 162.953 C 234.360 162.953,233.332 163.018,234.716 163.097 M171.891 163.489 C 172.601 163.577,173.861 163.579,174.691 163.492 C 175.521 163.405,174.940 163.333,173.400 163.331 C 171.860 163.329,171.181 163.400,171.891 163.489 M154.705 163.883 C 155.202 163.979,155.922 163.975,156.305 163.875 C 156.687 163.775,156.280 163.696,155.400 163.701 C 154.520 163.705,154.207 163.787,154.705 163.883 M158.300 166.282 C 158.795 166.378,159.605 166.378,160.100 166.282 C 160.595 166.187,160.190 166.109,159.200 166.109 C 158.210 166.109,157.805 166.187,158.300 166.282 M141.300 166.676 C 141.685 166.776,142.315 166.776,142.700 166.676 C 143.085 166.575,142.770 166.493,142.000 166.493 C 141.230 166.493,140.915 166.575,141.300 166.676 M124.400 179.600 C 123.091 179.876,123.135 179.898,125.076 179.947 C 126.218 179.976,127.264 179.820,127.400 179.600 C 127.677 179.152,126.527 179.152,124.400 179.600 M180.900 180.296 C 182.165 180.375,184.235 180.375,185.500 180.296 C 186.765 180.216,185.730 180.151,183.200 180.151 C 180.670 180.151,179.635 180.216,180.900 180.296 M234.900 180.697 C 236.385 180.774,238.815 180.774,240.300 180.697 C 241.785 180.620,240.570 180.557,237.600 180.557 C 234.630 180.557,233.415 180.620,234.900 180.697 M278.900 181.087 C 279.505 181.178,280.495 181.178,281.100 181.087 C 281.705 180.995,281.210 180.920,280.000 180.920 C 278.790 180.920,278.295 180.995,278.900 181.087 M142.561 216.800 C 142.561 220.210,142.622 221.605,142.697 219.900 C 142.772 218.195,142.772 215.405,142.697 213.700 C 142.622 211.995,142.561 213.390,142.561 216.800 M273.891 216.689 C 274.601 216.777,275.861 216.779,276.691 216.692 C 277.521 216.605,276.940 216.533,275.400 216.531 C 273.860 216.529,273.181 216.600,273.891 216.689 " stroke="none" fill="#8c8c8c" fill-rule="evenodd"></path><path id="path4" d="M197.891 163.089 C 198.601 163.177,199.861 163.179,200.691 163.092 C 201.521 163.005,200.940 162.933,199.400 162.931 C 197.860 162.929,197.181 163.000,197.891 163.089 M244.105 163.087 C 244.714 163.179,245.614 163.177,246.105 163.082 C 246.597 162.987,246.100 162.911,245.000 162.914 C 243.900 162.917,243.497 162.995,244.105 163.087 M168.900 163.476 C 169.285 163.576,169.915 163.576,170.300 163.476 C 170.685 163.375,170.370 163.293,169.600 163.293 C 168.830 163.293,168.515 163.375,168.900 163.476 M152.100 163.876 C 152.485 163.976,153.115 163.976,153.500 163.876 C 153.885 163.775,153.570 163.693,152.800 163.693 C 152.030 163.693,151.715 163.775,152.100 163.876 M161.300 166.276 C 161.685 166.376,162.315 166.376,162.700 166.276 C 163.085 166.175,162.770 166.093,162.000 166.093 C 161.230 166.093,160.915 166.175,161.300 166.276 M152.300 179.093 C 153.235 179.177,154.765 179.177,155.700 179.093 C 156.635 179.009,155.870 178.940,154.000 178.940 C 152.130 178.940,151.365 179.009,152.300 179.093 M170.500 179.100 C 176.825 179.162,187.175 179.162,193.500 179.100 C 199.825 179.038,194.650 178.987,182.000 178.987 C 169.350 178.987,164.175 179.038,170.500 179.100 M206.305 179.083 C 206.802 179.179,207.522 179.175,207.905 179.075 C 208.287 178.975,207.880 178.896,207.000 178.901 C 206.120 178.905,205.807 178.987,206.305 179.083 M294.600 179.227 C 293.949 179.485,294.041 179.549,295.100 179.572 C 296.452 179.601,296.758 179.420,295.900 179.098 C 295.625 178.995,295.040 179.053,294.600 179.227 M120.000 179.600 L 116.600 179.851 119.600 179.902 C 121.250 179.931,123.320 179.805,124.200 179.623 C 126.128 179.224,125.163 179.219,120.000 179.600 M175.507 180.290 C 176.226 180.379,177.306 180.377,177.907 180.286 C 178.508 180.195,177.920 180.122,176.600 180.124 C 175.280 180.126,174.788 180.201,175.507 180.290 M229.705 180.687 C 230.314 180.779,231.214 180.777,231.705 180.682 C 232.197 180.587,231.700 180.511,230.600 180.514 C 229.500 180.517,229.097 180.595,229.705 180.687 M193.500 181.089 C 194.215 181.178,195.385 181.178,196.100 181.089 C 196.815 181.001,196.230 180.928,194.800 180.928 C 193.370 180.928,192.785 181.001,193.500 181.089 M274.707 181.090 C 275.426 181.179,276.506 181.177,277.107 181.086 C 277.708 180.995,277.120 180.922,275.800 180.924 C 274.480 180.926,273.988 181.001,274.707 181.090 M112.109 210.400 C 112.109 211.390,112.187 211.795,112.282 211.300 C 112.378 210.805,112.378 209.995,112.282 209.500 C 112.187 209.005,112.109 209.410,112.109 210.400 M271.765 215.800 C 271.766 219.760,271.826 221.326,271.898 219.280 C 271.971 217.234,271.971 213.994,271.898 212.080 C 271.824 210.166,271.765 211.840,271.765 215.800 M112.155 217.400 C 112.156 220.260,112.220 221.378,112.297 219.883 C 112.374 218.389,112.374 216.049,112.296 214.683 C 112.218 213.318,112.155 214.540,112.155 217.400 M142.144 217.200 C 142.144 219.290,142.212 220.145,142.294 219.100 C 142.376 218.055,142.376 216.345,142.294 215.300 C 142.212 214.255,142.144 215.110,142.144 217.200 " stroke="none" fill="#848484" fill-rule="evenodd"></path></g></svg>