<?xml version="1.0" standalone="no"?>
<!DOCTYPE svg PUBLIC "-//W3C//DTD SVG 20010904//EN"
 "http://www.w3.org/TR/2001/REC-SVG-20010904/DTD/svg10.dtd">
<svg version="1.0" xmlns="http://www.w3.org/2000/svg"
 width="1366.000000pt" height="1366.000000pt" viewBox="0 0 1366.000000 1366.000000"
 preserveAspectRatio="xMidYMid meet">
<metadata>
Created by potrace 1.14, written by Peter Selinger 2001-2017
</metadata>
<g transform="translate(0.000000,1366.000000) scale(0.100000,-0.100000)"
fill="#000000" stroke="none">
<path d="M6455 11509 c-2333 -109 -4357 -1406 -5088 -3259 -192 -484 -280
-950 -280 -1470 0 -520 88 -986 280 -1470 427 -1083 1304 -2000 2472 -2585
1281 -641 2799 -839 4245 -554 1941 382 3488 1564 4109 3139 192 484 280 950
280 1470 0 520 -88 986 -280 1470 -623 1581 -2188 2771 -4134 3144 -537 103
-1058 141 -1604 115z m2210 -3439 c44 -17 99 -40 122 -50 24 -11 45 -20 49
-20 6 0 109 -49 351 -166 84 -41 157 -74 162 -74 5 0 11 -3 13 -7 2 -5 96 -54
209 -110 l206 -103 159 0 c197 0 740 -16 1014 -30 113 -6 345 -17 515 -25 578
-27 585 -27 585 -41 0 -7 3 -14 8 -16 13 -5 43 -91 34 -100 -4 -4 -38 -3 -75
3 -110 17 -108 6 6 -36 100 -37 118 -47 100 -58 -9 -5 -101 8 -135 19 -19 6
-20 5 -8 -7 8 -8 48 -25 88 -39 41 -14 79 -31 85 -39 10 -12 3 -13 -46 -7 -72
8 -67 -4 12 -30 73 -23 85 -50 19 -40 l-43 6 39 -20 c22 -11 46 -20 53 -20 17
0 17 -30 1 -31 -7 0 -4 -4 7 -9 15 -5 30 -35 53 -102 28 -82 38 -128 29 -128
-1 0 -63 14 -137 30 -74 17 -157 35 -185 40 -90 17 -136 33 -132 44 2 6 16 10
31 8 14 -1 26 2 26 7 0 16 -54 76 -164 186 -182 179 -252 238 -304 252 -49 14
-172 25 -447 42 -88 5 -216 15 -285 20 -451 39 -1215 58 -2585 65 -1712 10
-2477 16 -2572 22 -80 4 -93 3 -93 -10 0 -20 -24 -21 -40 -1 -10 12 -46 15
-201 15 -161 0 -189 -2 -189 -15 0 -20 -24 -19 -41 1 -13 16 -73 17 -724 12
-390 -3 -672 -2 -625 3 115 10 551 26 973 34 l347 7 0 159 c0 88 4 159 8 159
4 0 16 -57 26 -127 9 -71 20 -143 23 -162 l6 -33 188 3 189 4 0 164 c0 90 3
161 6 158 4 -3 13 -59 21 -124 8 -65 17 -135 20 -155 l5 -38 702 0 c385 0 812
-3 949 -7 l247 -6 0 169 c1 115 4 164 10 152 6 -9 13 -45 16 -80 3 -35 10 -76
14 -93 5 -16 11 -56 15 -87 l6 -58 180 0 179 0 1 143 c1 78 5 153 9 167 4 14
9 21 9 15 20 -167 41 -309 48 -316 5 -5 292 -8 669 -7 519 2 653 6 632 15 -14
6 -38 27 -53 47 -16 21 -42 40 -67 48 -23 7 -43 19 -46 26 -5 16 111 17 157 1
46 -16 49 -5 4 16 -21 10 -40 21 -43 24 -3 3 -63 35 -135 71 -71 36 -132 67
-135 70 -8 8 -110 56 -171 81 -50 20 -79 22 -429 31 -448 12 -2538 4 -3110
-12 -734 -19 -1313 -50 -1515 -80 -76 -11 -162 -34 -212 -56 -17 -8 -34 -14
-37 -14 -13 0 -263 -101 -297 -119 -9 -5 -61 -28 -115 -51 -54 -23 -118 -51
-141 -61 -23 -10 -48 -19 -55 -19 -8 0 -18 -4 -23 -8 -13 -12 -178 -65 -285
-92 -84 -22 -166 -38 -305 -59 -38 -6 -95 -16 -125 -21 -98 -17 -410 -41 -423
-33 -13 8 2 11 173 38 181 28 310 52 460 85 110 24 318 84 367 106 17 8 37 14
45 14 8 0 18 4 23 8 6 4 66 30 135 58 69 27 127 52 128 57 2 4 8 7 14 7 5 0
24 6 41 14 18 8 63 28 100 45 38 17 103 45 145 62 42 17 91 37 107 44 136 59
153 64 298 84 310 44 800 70 1727 91 250 6 572 14 715 19 143 4 778 8 1410 9
l1150 2 80 -30z m-6885 -743 c0 -7 -63 -109 -141 -227 -78 -118 -180 -275
-228 -347 -56 -87 -92 -133 -103 -133 -10 0 -18 5 -18 12 0 6 41 148 91 316
64 216 87 308 80 315 -6 6 -11 21 -11 33 0 21 6 23 88 29 48 3 92 8 97 10 6 2
40 4 78 4 48 1 67 -3 67 -12z m10241 -677 c29 -31 44 -39 87 -45 29 -4 54 -11
58 -16 3 -5 17 -9 32 -9 32 0 72 -25 72 -45 0 -14 -39 -12 -133 6 -26 5 -66 9
-88 9 -34 0 -41 4 -50 28 -7 15 -15 36 -20 47 -29 71 -37 94 -31 99 3 3 12 -3
21 -15 9 -11 32 -38 52 -59z m-6260 -112 c82 -27 132 -86 155 -181 16 -62 16
-72 0 -134 -20 -84 -55 -129 -126 -165 -141 -73 -307 10 -341 169 -28 136 40
270 156 311 41 14 115 14 156 0z m1860 0 c82 -27 132 -86 155 -181 16 -62 16
-72 0 -134 -20 -84 -55 -129 -126 -165 -141 -73 -307 10 -341 169 -28 136 40
270 156 311 41 14 115 14 156 0z m2792 -2 c18 -7 43 -25 56 -39 21 -24 22 -27
7 -33 -11 -4 -26 2 -40 15 -70 66 -206 39 -222 -45 -9 -45 31 -86 114 -118
130 -50 169 -92 159 -169 -16 -122 -193 -158 -303 -63 -30 26 -36 37 -27 46 9
10 20 5 50 -18 97 -78 243 -49 243 49 0 49 -41 85 -135 119 -37 14 -83 39
-102 56 -29 27 -33 38 -33 81 0 58 21 91 72 116 41 20 118 22 161 3z m-7363
-231 l0 -235 130 0 c109 0 130 -2 130 -15 0 -13 -23 -15 -145 -15 l-145 0 0
250 c0 216 2 250 15 250 13 0 15 -33 15 -235z m815 -15 c0 -225 -1 -245 -17
-248 -17 -3 -18 14 -18 248 0 234 1 251 18 248 16 -3 17 -23 17 -248z m705
110 c52 -78 97 -143 101 -146 4 -2 51 61 105 141 54 80 104 145 111 145 10 0
13 -50 13 -250 0 -214 -2 -250 -15 -250 -12 0 -15 33 -17 217 l-3 218 -89
-138 c-49 -75 -92 -140 -97 -143 -5 -2 -51 60 -104 138 l-95 143 0 -218 c0
-186 -2 -217 -15 -217 -13 0 -15 34 -15 250 0 204 3 250 14 250 7 0 55 -63
106 -140z m2230 125 c0 -6 -37 -11 -85 -13 l-85 -3 0 -234 c0 -202 -2 -235
-15 -235 -13 0 -15 33 -15 235 l0 235 -85 0 c-69 0 -85 3 -85 15 0 13 25 15
185 13 115 -2 185 -7 185 -13z m1562 -167 c3 -171 4 -185 26 -221 29 -46 71
-69 128 -69 60 0 104 28 132 82 20 41 22 58 22 217 0 147 2 173 15 173 13 0
15 -28 15 -188 l0 -188 -29 -46 c-74 -116 -232 -116 -312 0 -23 34 -24 43 -27
229 -3 164 -1 193 11 193 13 0 16 -31 19 -182z m1209 159 c46 -31 61 -62 56
-121 -4 -41 -10 -55 -39 -82 l-35 -32 29 -30 c25 -25 31 -41 37 -96 4 -36 12
-71 19 -78 17 -17 15 -38 -3 -38 -22 0 -44 41 -51 96 -3 27 -7 59 -10 71 -7
38 -53 53 -158 53 l-95 0 -3 -107 c-3 -93 -5 -108 -20 -111 -17 -3 -18 14 -18
247 l0 251 129 0 c117 0 131 -2 162 -23z"/>
<path d="M9184 7638 c3 -13 6 -38 6 -55 l0 -33 90 0 c53 0 90 4 90 10 0 6 -5
10 -10 10 -6 0 -41 17 -78 38 -96 55 -106 57 -98 30z"/>
<path d="M11610 7361 c0 -9 36 -57 61 -81 8 -8 31 -23 50 -32 19 -9 44 -21 56
-27 21 -10 21 -9 16 23 -5 32 -3 34 28 41 41 9 59 22 59 44 0 13 -17 19 -78
29 -90 14 -192 16 -192 3z"/>
<path d="M5625 6505 c-146 -39 -197 -255 -89 -375 77 -85 224 -85 297 1 38 44
57 97 57 159 0 156 -121 254 -265 215z"/>
<path d="M7485 6505 c-146 -39 -197 -255 -89 -375 77 -85 224 -85 297 1 38 44
57 97 57 159 0 156 -121 254 -265 215z"/>
<path d="M9320 6406 l0 -106 104 0 c89 0 107 3 129 20 50 40 55 120 10 162
-22 21 -36 23 -134 26 l-109 4 0 -106z"/>
</g>
</svg>
